<?xml version="1.0" encoding="UTF-8"?>
<svg width="98px" height="28px" viewBox="0 0 98 28" version="1.1" xmlns="http://www.w3.org/2000/svg" xmlns:xlink="http://www.w3.org/1999/xlink">
    <!-- Generator: Sketch 61.2 (89653) - https://sketch.com -->
    <title>logo / white</title>
    <desc>Created with Sketch.</desc>
    <defs>
        <polygon id="path-1" points="0.11484375 0.1148875 22.96875 0.1148875 22.96875 22.96875 0.11484375 22.96875"></polygon>
        <polygon id="path-3" points="4.375e-05 0 22.85395 0 22.85395 22.8538844 4.375e-05 22.8538844"></polygon>
    </defs>
    <g id="logo-/-white" stroke="none" stroke-width="1" fill="none" fill-rule="evenodd">
        <g id="Group-18">
            <g id="Group-3" transform="translate(5.031250, 5.031250)">
                <mask id="mask-2" fill="white">
                    <use xlink:href="#path-1"></use>
                </mask>
                <g id="Clip-2"></g>
                <path d="M22.6137188,2.8147 L20.0469063,0.24810625 C19.8695,0.07048125 19.581625,0.07048125 19.404,0.24810625 L0.2480625,19.4040437 C0.0704375,19.58145 0.0704375,19.8695437 0.2480625,20.04695 L2.81465625,22.6137625 C3.0419375,22.8410438 3.350375,22.9687937 3.6719375,22.9687937 L14.2655625,22.9687937 C14.587125,22.9687937 14.8955625,22.8410438 15.1228438,22.6137625 L17.6894375,20.04695 C17.8670625,19.8695437 17.8670625,19.58145 17.6894375,19.4040437 L13.8882188,15.602825 C13.7105938,15.4252 13.7105938,15.137325 13.8882188,14.9599188 L14.959875,13.8882625 C15.1372813,13.7108563 15.4251563,13.7108563 15.6027813,13.8882625 L19.404,17.6894813 C19.581625,17.8671063 19.8695,17.8671063 20.0469063,17.6894813 L22.6137188,15.1228875 C22.841,14.8956063 22.96875,14.58695 22.96875,14.2656063 L22.96875,3.6717625 C22.96875,3.35041875 22.841,3.04198125 22.6137188,2.8147" id="Fill-1" fill="#EA2E0F" mask="url(#mask-2)"></path>
            </g>
            <g id="Group-6">
                <mask id="mask-4" fill="white">
                    <use xlink:href="#path-3"></use>
                </mask>
                <g id="Clip-5"></g>
                <path d="M22.7207313,2.92182187 L20.1541375,0.355009375 C19.9268563,0.127728125 19.6184188,-2.1875e-05 19.2968563,-2.1875e-05 L8.7030125,-2.1875e-05 C8.38166875,-2.1875e-05 8.07323125,0.127728125 7.84595,0.355009375 L5.27935625,2.92182187 C5.10173125,3.09944687 5.10173125,3.38710312 5.27935625,3.56472812 L9.080575,7.36594687 C9.2582,7.54357188 9.2582,7.83144688 9.080575,8.00885312 L8.00891875,9.08050938 C7.8315125,9.25813438 7.5436375,9.25813438 7.3660125,9.08050938 L3.56479375,5.27929062 C3.38716875,5.10166563 3.09929375,5.10166563 2.9218875,5.27929062 L0.355075,7.84588438 C0.12779375,8.07316563 4.375e-05,8.38160313 4.375e-05,8.70316563 L4.375e-05,19.2967906 C4.375e-05,19.6183531 0.12779375,19.9267906 0.355075,20.1540719 L2.9218875,22.7206656 C3.09929375,22.8982906 3.38716875,22.8982906 3.56479375,22.7206656 L22.7207313,3.56472812 C22.8983563,3.38710312 22.8983563,3.09944687 22.7207313,2.92182187" id="Fill-4" fill="#EA2E0F" mask="url(#mask-4)"></path>
            </g>
            <path d="M68.0192844,17.3026219 C68.0192844,19.1805906 66.9681906,20.1196844 65.6718781,20.1196844 C64.3753469,20.1196844 63.3242531,19.1805906 63.3242531,17.3026219 L63.3242531,15.4244344 C63.3242531,13.5464656 64.3753469,12.6075906 65.6718781,12.6075906 C66.9681906,12.6075906 68.0192844,13.5464656 68.0192844,15.4244344 L68.0192844,17.3026219 Z M65.6718781,9.32087188 C62.5730656,9.32087188 60.0377531,11.4335594 60.0377531,15.8940906 L60.0377531,16.8331844 C60.0377531,21.2934969 62.5730656,23.4061844 65.6718781,23.4061844 C68.7706906,23.4061844 71.3057844,21.2934969 71.3057844,16.8331844 L71.3057844,15.8940906 C71.3057844,11.4335594 68.7706906,9.32087188 65.6718781,9.32087188 L65.6718781,9.32087188 Z" id="Fill-7" fill="#FFFFFF"></path>
            <path d="M46.6484375,16.5982906 L46.6484375,16.8526969 C46.6484375,18.6678844 45.1769063,20.1391969 43.3619375,20.1391969 C41.54675,20.1391969 40.0752187,18.6678844 40.0752187,16.8526969 L40.0752187,11.3113219 C40.0752187,9.54163437 41.4351875,8.01891562 43.203125,7.93557187 C45.0902813,7.84675938 46.6484375,9.35066563 46.6484375,11.2185719 L46.6484375,11.4336031 C46.6484375,11.5633219 46.7534375,11.6683219 46.8831562,11.6683219 L49.7083125,11.6683219 C49.8380312,11.6683219 49.94325,11.5633219 49.94325,11.4336031 L49.94325,10.7294469 C49.94325,7.35850937 47.2104062,4.62588437 43.8394687,4.62588437 L42.900375,4.62588437 C39.5294375,4.62588437 36.7968125,7.67766562 36.7968125,11.1988844 L36.7968125,16.8330094 C36.7968125,20.3544469 39.5294375,23.4062281 42.900375,23.4062281 L43.8394687,23.4062281 C47.2104062,23.4062281 49.94325,20.6736031 49.94325,17.3026656 L49.94325,16.5982906 C49.94325,16.4685719 49.8380312,16.3635719 49.7083125,16.3635719 L46.8831562,16.3635719 C46.7534375,16.3635719 46.6484375,16.4685719 46.6484375,16.5982906" id="Fill-9" fill="#FFFFFF"></path>
            <path d="M56.5163375,23.1714875 L53.699275,23.1714875 C53.5695563,23.1714875 53.4645563,23.0664875 53.4645563,22.9367688 L53.4645563,5.33001875 C53.4645563,5.2003 53.5695563,5.0953 53.699275,5.0953 L56.5163375,4.15620625 C56.6460563,4.15620625 56.7510563,4.261425 56.7510563,4.390925 L56.7510563,22.9367688 C56.7510563,23.0664875 56.6460563,23.1714875 56.5163375,23.1714875" id="Fill-11" fill="#FFFFFF"></path>
            <path d="M84.601125,9.55567813 L81.80725,9.55567813 C81.7046562,9.55567813 81.6140937,9.62195937 81.58325,9.71952187 L78.8180312,18.0696469 L76.0530312,9.71952187 C76.0219687,9.62195937 75.9314062,9.55567813 75.8290312,9.55567813 L73.0349375,9.55567813 C72.876125,9.55567813 72.76325,9.70989688 72.811375,9.86127188 L77.1225,23.0088031 C77.1535625,23.1057094 77.2439062,23.1715531 77.3458438,23.1715531 L80.2904375,23.1715531 C80.392375,23.1715531 80.4825,23.1057094 80.5137812,23.0088031 L84.8249062,9.86127188 C84.8728125,9.70989688 84.7599375,9.55567813 84.601125,9.55567813" id="Fill-13" fill="#FFFFFF"></path>
            <path d="M89.6432906,14.9551063 C89.6432906,13.3116375 90.7814469,12.6074812 91.9644469,12.6074812 C93.1474469,12.6074812 94.2856031,13.3116375 94.2856031,14.9551063 L89.6432906,14.9551063 Z M91.9644469,9.32098125 C88.8656344,9.32098125 86.3301031,11.4336688 86.3301031,15.8939812 L86.3301031,16.833075 C86.3301031,21.2936062 88.8656344,23.4062937 91.9644469,23.4062937 L95.7857906,23.4062937 C95.8870719,23.4062937 95.9767594,23.341325 96.0086969,23.2452937 L96.9283219,20.4708875 C97.0177906,20.3144813 96.9046969,20.119575 96.7244469,20.119575 L91.9644469,20.119575 C90.7814469,20.119575 89.8058219,19.3353562 89.6432906,17.7721687 L96.9237281,17.7721687 C97.0411969,17.7721687 97.1424781,17.6846688 97.1580094,17.5678562 C97.7716031,12.9686375 95.6659156,9.32098125 91.9644469,9.32098125 L91.9644469,9.32098125 Z" id="Fill-15" fill="#FFFFFF"></path>
        </g>
    </g>
</svg>